<?xml version="1.0" encoding="utf-8" ?><svg xmlns="http://www.w3.org/2000/svg" viewBox="375 360 290 290"><defs><clipPath id="circleClip"><circle cx="520" cy="505" r="145"/></clipPath></defs><circle cx="520" cy="505" r="145" fill="#1A1A2E"/><g clip-path="url(#circleClip)"><path fill="#FFFFFF" d="M526.452 413.649C529.14 415.249 536.335 422.525 539.023 425.118L559.523 444.753C584.083 467.963 609.336 490.599 633.524 514.204L552.498 590.831C543.844 599.2 535.118 607.494 526.319 615.71L526.218 572.005L584.339 516.111C564.819 497.195 545.512 478.06 526.422 458.711C526.22 443.691 526.23 428.669 526.452 413.649Z"/><path fill="#FFFFFF" d="M389.787 414.124C392.154 415.504 412.92 435.849 416.159 438.902C433.759 455.321 451.251 471.857 468.633 488.506C477.423 496.915 488.051 506.671 496.206 515.491C489.127 521.752 481.576 529.17 474.519 535.671L416.182 589.634C407.568 597.899 398.856 606.061 390.048 614.118L390.041 570.697C409.048 552.384 427.86 533.871 446.475 515.16C428.635 496.699 406.927 477.48 389.908 459.075C390.044 444.236 389.414 428.877 389.787 414.124Z"/><path fill="#FFFFFF" d="M459.008 415.196C462.194 417.013 472.944 427.937 476.125 431.041C505.494 459.708 537.007 486.833 565.48 516.347C558.465 522.128 550.117 530.152 543.226 536.369C523.376 554.365 503.782 572.64 484.449 591.189C475.791 599.098 467.508 607.681 458.641 615.356C458.797 600.679 458.871 586.001 458.863 571.323C461.587 568.445 464.644 565.747 467.436 562.912C483.205 546.901 499.461 531.201 514.955 514.933C509.522 508.674 499.506 499.104 493.57 493.239L459.013 458.784L459.008 415.196Z"/><path fill="#00C9A7" d="M609.702 394.91C611.487 397.468 610.84 413.659 617.033 421.658C626.336 433.674 637.28 433.758 651.138 436.635C636.127 438.11 623.066 439.938 615.208 454.995C612.663 459.874 610.755 475.338 609.789 476.583C605.361 444.965 598.629 440.185 567.347 436.58C577.163 434.349 588.018 434.275 596.829 428.087C607.614 420.512 607.817 406.541 609.702 394.91Z"/></g></svg>
